<?xml version="1.0" encoding="UTF-8"?>
<!DOCTYPE svg PUBLIC "-//W3C//DTD SVG 1.1//EN" "http://www.w3.org/Graphics/SVG/1.1/DTD/svg11.dtd">
<svg version="1.1" xmlns="http://www.w3.org/2000/svg" xmlns:xlink="http://www.w3.org/1999/xlink" x="0" y="0" width="128" height="128" viewBox="0, 0, 128, 128">
  <g id="Mid_Gray" display="none">
    <path d="M0,0 L128,0 L128,128 L0,128 L0,0 z" fill="#393939"/>
  </g>
  <g id="Dark_Background">
    <path d="M107.321,10.863 L107.583,10.871 C112.755,11.26 124.702,26.036 124.983,37.36 C125.264,48.684 124.917,49.529 104.075,63.722 C98.345,67.481 92.973,72.047 89.336,78.015 L87.939,75.231 C89.897,68.898 90.057,62.806 88.733,56.355 C87.277,50.691 83.782,45.729 80.061,41.31 C79.92,39.634 80.065,37.951 80.249,36.286 C80.296,35.91 80.374,35.539 80.437,35.166 C81.352,27.568 89.965,20.546 95.649,16.539 C98.792,14.322 103.307,11.195 107.321,10.863 L107.321,10.863 z" fill="#58BF43"/>
    <g>
      <path d="M55.996,74.651 C58.871,78.352 62.573,81.246 66.184,84.151 L70.255,92.265 C70.056,92.315 70.188,92.289 69.854,92.309 C60.05,87.991 52.002,82.881 42.687,82.881 C41.969,82.902 41.926,82.892 41.005,83.01 C38.852,83.286 36.723,83.793 34.611,84.287 C31.746,84.956 28.889,85.655 26.017,86.288 L25.31,86.153 C28.127,83.347 31.884,81.534 35.443,79.924 C41.929,76.973 48.875,74.965 55.996,74.651 z" fill="#41A32C"/>
      <path d="M33.309,64.251 C39.96,64.289 46.87,65.34 52.795,68.612 C53.211,70.502 54.225,72.128 55.273,73.705 C48.208,73.88 41.458,76.134 35.026,78.97 C32.075,80.305 27.1,82.645 24.894,85.198 L23.686,86.086 C20.934,86.6 19.784,86.717 16.971,86.336 C12.263,85.463 6.531,83.938 3.813,77.7 C3.813,70.279 16.552,64.264 32.266,64.264 L33.309,64.251 z" fill="#58BF43"/>
    </g>
    <path d="M46,34.409 C48.966,34.562 51.804,35.645 54.569,36.671 C53.31,42.115 52.655,47.704 52.38,53.288 C52.229,56.354 52.167,59.454 52.594,62.501 C49.157,58.397 42.791,36.382 45.447,34.461 L45.447,34.461 C45.74,34.412 45.556,34.437 46,34.409 z" fill="#49A422"/>
    <path d="M84.092,85.765 L95.477,108.461 C97.155,111.804 96.709,115.619 94.482,116.981 C92.255,118.343 89.09,116.736 87.413,113.393 L75.54,89.725 C77.402,91.108 79.253,92.541 81.274,93.679 C82.386,91.106 83.267,88.445 84.092,85.765 z" fill="#6E9F2B"/>
    <path d="M63.882,34.256 C67.15,35.156 80.221,48.656 82.264,58.105 C84.306,67.555 82.672,75.204 78.587,85.104 C75.576,83.442 60.637,72.909 59.388,65.305 C58.139,57.701 60.74,34.774 63.882,34.256 z" fill="#4CAB2E"/>
  </g>
</svg>
