<?xml version="1.0" encoding="UTF-8"?>
<!DOCTYPE svg PUBLIC "-//W3C//DTD SVG 1.1//EN" "http://www.w3.org/Graphics/SVG/1.1/DTD/svg11.dtd">
<svg version="1.1" xmlns="http://www.w3.org/2000/svg" xmlns:xlink="http://www.w3.org/1999/xlink" x="0" y="0" width="512" height="128" viewBox="0, 0, 512, 128">
  <g id="Mid_Gray" display="none">
    <path d="M0,0 L512,0 L512,128 L0,128 L0,0 z" fill="#393939"/>
  </g>
  <g id="Dark_Background">
    <g>
      <path d="M115.321,10.699 L115.583,10.707 C120.755,11.095 132.702,25.872 132.983,37.195 C133.264,48.519 132.917,49.365 112.075,63.558 C106.345,67.317 100.973,71.882 97.336,77.851 L95.939,75.067 C97.897,68.734 98.057,62.642 96.733,56.191 C95.277,50.527 91.782,45.565 88.061,41.145 C87.92,39.47 88.065,37.787 88.249,36.122 C88.296,35.746 88.374,35.375 88.437,35.001 C89.352,27.404 97.965,20.382 103.649,16.374 C106.792,14.158 111.307,11.031 115.321,10.699 L115.321,10.699 z" fill="#58BF43"/>
      <g>
        <path d="M63.996,74.486 C66.871,78.188 70.573,81.082 74.184,83.987 L78.255,92.101 C78.056,92.151 78.188,92.124 77.854,92.145 C68.05,87.826 60.002,82.716 50.687,82.716 C49.969,82.738 49.926,82.728 49.005,82.846 C46.852,83.122 44.723,83.629 42.611,84.122 C39.746,84.792 36.889,85.491 34.017,86.123 L33.31,85.988 C36.127,83.182 39.884,81.37 43.443,79.76 C49.929,76.809 56.874,74.801 63.996,74.486 z" fill="#41A32C"/>
        <path d="M41.309,64.086 C47.96,64.125 54.87,65.175 60.795,68.448 C61.211,70.337 62.225,71.964 63.273,73.541 C56.208,73.716 49.458,75.97 43.026,78.805 C40.075,80.14 35.1,82.481 32.894,85.034 L31.686,85.922 C28.934,86.436 27.784,86.553 24.971,86.172 C20.263,85.299 14.531,83.773 11.813,77.535 C11.813,70.115 24.552,64.1 40.266,64.1 L41.309,64.086 z" fill="#58BF43"/>
      </g>
      <path d="M54,34.244 C56.966,34.398 59.804,35.481 62.569,36.506 C61.31,41.95 60.655,47.54 60.38,53.123 C60.229,56.19 60.167,59.29 60.594,62.336 C57.157,58.233 50.791,36.218 53.447,34.297 L53.447,34.297 C53.74,34.248 53.556,34.273 54,34.244 z" fill="#419A1C"/>
      <path d="M92.092,85.601 L103.477,108.297 C105.155,111.64 104.709,115.454 102.482,116.816 C100.255,118.178 97.09,116.572 95.413,113.229 L83.54,89.561 C85.402,90.944 87.253,92.377 89.274,93.515 C90.386,90.942 91.267,88.281 92.092,85.601 z" fill="#6E9F2B"/>
      <path d="M71.882,34.092 C75.15,34.992 88.221,48.491 90.264,57.941 C92.306,67.39 90.672,75.04 86.587,84.94 C83.576,83.277 68.637,72.745 67.388,65.141 C66.139,57.536 68.74,34.609 71.882,34.092 z" fill="#4CAB2E"/>
    </g>
    <path d="M182.68,47.44 L182.68,84.088 Q182.68,87.328 182.248,90.1 Q181.816,92.872 180.556,94.924 Q179.296,96.976 176.992,98.128 Q174.688,99.28 171.016,99.28 Q169.792,99.28 168.64,99.136 Q167.488,98.992 166.336,98.632 L166.984,91.144 Q167.704,91.288 168.352,91.396 Q169,91.504 169.72,91.504 Q171.304,91.504 172.204,90.82 Q173.104,90.136 173.5,89.056 Q173.896,87.976 173.968,86.68 Q174.04,85.384 174.04,84.16 L174.04,47.44 z M172.816,35.704 Q172.816,33.616 174.364,32.068 Q175.912,30.52 178.288,30.52 Q180.664,30.52 182.284,31.996 Q183.904,33.472 183.904,35.704 Q183.904,37.936 182.284,39.412 Q180.664,40.888 178.288,40.888 Q175.912,40.888 174.364,39.34 Q172.816,37.792 172.816,35.704 z" fill="#FFFFFF"/>
    <path d="M220.216,77.248 L220,77.248 Q218.128,80.2 215.248,81.532 Q212.368,82.864 208.912,82.864 Q206.536,82.864 204.268,82.216 Q202,81.568 200.236,80.272 Q198.472,78.976 197.392,77.032 Q196.312,75.088 196.312,72.496 Q196.312,69.688 197.32,67.708 Q198.328,65.728 200.02,64.396 Q201.712,63.064 203.944,62.272 Q206.176,61.48 208.588,61.084 Q211,60.688 213.448,60.58 Q215.896,60.472 218.056,60.472 L220.216,60.472 L220.216,59.536 Q220.216,56.296 217.984,54.676 Q215.752,53.056 212.296,53.056 Q209.56,53.056 207.184,54.028 Q204.808,55 203.08,56.656 L198.544,52.12 Q201.424,49.168 205.276,47.872 Q209.128,46.576 213.232,46.576 Q216.904,46.576 219.424,47.404 Q221.944,48.232 223.6,49.528 Q225.256,50.824 226.156,52.516 Q227.056,54.208 227.452,55.936 Q227.848,57.664 227.92,59.284 Q227.992,60.904 227.992,62.128 L227.992,82 L220.216,82 z M219.712,66.52 L217.912,66.52 Q216.112,66.52 213.88,66.664 Q211.648,66.808 209.668,67.348 Q207.688,67.888 206.32,68.932 Q204.952,69.976 204.952,71.848 Q204.952,73.072 205.492,73.9 Q206.032,74.728 206.896,75.304 Q207.76,75.88 208.84,76.132 Q209.92,76.384 211,76.384 Q215.464,76.384 217.588,74.26 Q219.712,72.136 219.712,68.464 z" fill="#FFFFFF"/>
    <path d="M270.64,76.816 L270.496,76.816 Q268.624,79.984 265.456,81.424 Q262.288,82.864 258.616,82.864 Q254.584,82.864 251.452,81.46 Q248.32,80.056 246.088,77.608 Q243.856,75.16 242.704,71.848 Q241.552,68.536 241.552,64.72 Q241.552,60.904 242.776,57.592 Q244,54.28 246.196,51.832 Q248.392,49.384 251.488,47.98 Q254.584,46.576 258.256,46.576 Q260.704,46.576 262.576,47.08 Q264.448,47.584 265.888,48.376 Q267.328,49.168 268.336,50.068 Q269.344,50.968 269.992,51.832 L270.208,51.832 L270.208,27.568 L278.848,27.568 L278.848,82 L270.64,82 z M250.192,64.72 Q250.192,66.736 250.876,68.608 Q251.56,70.48 252.892,71.92 Q254.224,73.36 256.096,74.224 Q257.968,75.088 260.344,75.088 Q262.72,75.088 264.592,74.224 Q266.464,73.36 267.796,71.92 Q269.128,70.48 269.812,68.608 Q270.496,66.736 270.496,64.72 Q270.496,62.704 269.812,60.832 Q269.128,58.96 267.796,57.52 Q266.464,56.08 264.592,55.216 Q262.72,54.352 260.344,54.352 Q257.968,54.352 256.096,55.216 Q254.224,56.08 252.892,57.52 Q251.56,58.96 250.876,60.832 Q250.192,62.704 250.192,64.72 z" fill="#FFFFFF"/>
    <path d="M301.552,67.744 Q301.984,71.632 304.576,73.792 Q307.168,75.952 310.84,75.952 Q314.08,75.952 316.276,74.62 Q318.472,73.288 320.128,71.272 L326.32,75.952 Q323.296,79.696 319.552,81.28 Q315.808,82.864 311.704,82.864 Q307.816,82.864 304.36,81.568 Q300.904,80.272 298.384,77.896 Q295.864,75.52 294.388,72.172 Q292.912,68.824 292.912,64.72 Q292.912,60.616 294.388,57.268 Q295.864,53.92 298.384,51.544 Q300.904,49.168 304.36,47.872 Q307.816,46.576 311.704,46.576 Q315.304,46.576 318.292,47.836 Q321.28,49.096 323.404,51.472 Q325.528,53.848 326.716,57.34 Q327.904,60.832 327.904,65.368 L327.904,67.744 z M319.264,61.264 Q319.192,57.448 316.888,55.252 Q314.584,53.056 310.48,53.056 Q306.592,53.056 304.324,55.288 Q302.056,57.52 301.552,61.264 z" fill="#FFFFFF"/>
    <path d="M337.936,54.784 L337.936,47.44 L345.064,47.44 L345.064,37.432 L353.704,37.432 L353.704,47.44 L363.208,47.44 L363.208,54.784 L353.704,54.784 L353.704,69.904 Q353.704,72.496 354.676,74.008 Q355.648,75.52 358.528,75.52 Q359.68,75.52 361.048,75.268 Q362.416,75.016 363.208,74.44 L363.208,81.712 Q361.84,82.36 359.86,82.612 Q357.88,82.864 356.368,82.864 Q352.912,82.864 350.716,82.108 Q348.52,81.352 347.26,79.804 Q346,78.256 345.532,75.952 Q345.064,73.648 345.064,70.624 L345.064,54.784 z" fill="#FFFFFF"/>
    <path d="M375.976,47.44 L384.616,47.44 L384.616,52.912 L384.76,52.912 Q386.2,49.888 388.864,48.232 Q391.528,46.576 394.984,46.576 Q395.776,46.576 396.532,46.72 Q397.288,46.864 398.08,47.08 L398.08,55.432 Q397,55.144 395.956,54.964 Q394.912,54.784 393.904,54.784 Q390.88,54.784 389.044,55.9 Q387.208,57.016 386.236,58.456 Q385.264,59.896 384.94,61.336 Q384.616,62.776 384.616,63.496 L384.616,82 L375.976,82 z" fill="#FFFFFF"/>
    <path d="M415.6,67.744 Q416.032,71.632 418.624,73.792 Q421.216,75.952 424.888,75.952 Q428.128,75.952 430.324,74.62 Q432.52,73.288 434.176,71.272 L440.368,75.952 Q437.344,79.696 433.6,81.28 Q429.856,82.864 425.752,82.864 Q421.864,82.864 418.408,81.568 Q414.952,80.272 412.432,77.896 Q409.912,75.52 408.436,72.172 Q406.96,68.824 406.96,64.72 Q406.96,60.616 408.436,57.268 Q409.912,53.92 412.432,51.544 Q414.952,49.168 418.408,47.872 Q421.864,46.576 425.752,46.576 Q429.352,46.576 432.34,47.836 Q435.328,49.096 437.452,51.472 Q439.576,53.848 440.764,57.34 Q441.952,60.832 441.952,65.368 L441.952,67.744 z M433.312,61.264 Q433.24,57.448 430.936,55.252 Q428.632,53.056 424.528,53.056 Q420.64,53.056 418.372,55.288 Q416.104,57.52 415.6,61.264 z" fill="#FFFFFF"/>
    <path d="M462.928,67.744 Q463.36,71.632 465.952,73.792 Q468.544,75.952 472.216,75.952 Q475.456,75.952 477.652,74.62 Q479.848,73.288 481.504,71.272 L487.696,75.952 Q484.672,79.696 480.928,81.28 Q477.184,82.864 473.08,82.864 Q469.192,82.864 465.736,81.568 Q462.28,80.272 459.76,77.896 Q457.24,75.52 455.764,72.172 Q454.288,68.824 454.288,64.72 Q454.288,60.616 455.764,57.268 Q457.24,53.92 459.76,51.544 Q462.28,49.168 465.736,47.872 Q469.192,46.576 473.08,46.576 Q476.68,46.576 479.668,47.836 Q482.656,49.096 484.78,51.472 Q486.904,53.848 488.092,57.34 Q489.28,60.832 489.28,65.368 L489.28,67.744 z M480.64,61.264 Q480.568,57.448 478.264,55.252 Q475.96,53.056 471.856,53.056 Q467.968,53.056 465.7,55.288 Q463.432,57.52 462.928,61.264 z" fill="#FFFFFF"/>
  </g>
</svg>
